<svg width="200" height="22" viewBox="0 0 200 22" fill="none" xmlns="http://www.w3.org/2000/svg">
<g clip-path="url(#clip0)">
<path d="M97.4068 20.2026V2.30065H90.373V0.718954H112.753V2.37255H106.004V20.2745L118.863 20.2026L119.432 14.7386L121.705 14.6667L120.995 21.7843H117.513H90.373V20.2026H97.4068ZM138.259 20.0588V2.15686C136.057 2.15686 133.854 2.15686 131.652 2.15686H131.581V0.647059H131.652C138.97 0.647059 146.217 0.647059 153.535 0.647059C155.737 0.647059 158.082 0.718954 160.213 1.15033C161.776 1.43791 163.268 1.94118 164.689 2.73203C165.755 3.30719 166.75 4.09804 167.531 5.03268C168.242 5.82353 168.81 6.75817 169.165 7.76471C169.52 8.69935 169.734 9.70588 169.734 10.7124C169.734 12.2222 169.591 13.732 168.81 15.098C168.028 16.5359 166.892 17.6863 165.542 18.549C164.263 19.3399 162.913 19.9869 161.492 20.4902C160 20.9935 158.437 21.281 156.874 21.4967C155.24 21.7124 153.606 21.7124 151.972 21.7124C150.337 21.7124 148.774 21.7124 147.14 21.7124C141.954 21.7124 136.696 21.7124 131.51 21.7124H131.439V20.1307L138.259 20.0588ZM192.895 20.1307H199.361V21.7843H177.336V20.1307H184.369V1.94118H177.975V0.359477H200V2.01307H192.966L192.895 20.1307ZM29.4849 2.44444C25.8615 2.37255 16.1989 1.86928 13.4281 3.23529C12.6465 3.59477 11.9361 4.16993 11.3677 4.7451C10.7282 5.46405 10.2309 6.2549 9.94671 7.11765C9.52043 8.19608 9.37833 9.4183 9.37833 10.5686C9.37833 12.0065 9.59147 13.3725 10.0888 14.6667C10.5861 15.817 11.2256 16.8954 12.1492 17.7582C13.0728 18.6209 14.1385 19.268 15.2753 19.6993C16.4121 20.1307 18.7567 20.3464 19.9645 20.3464H23.0195V13.8758H18.0462V12.2941H36.4476V13.8758H31.2611V21.8562H30.8348C28.5613 21.8562 26.2877 21.8562 24.0142 21.8562H23.5879C22.8774 21.8562 22.167 21.8562 21.4565 21.8562C21.0302 21.8562 20.6039 21.8562 20.1776 21.8562C19.1119 21.8562 18.1172 21.8562 17.0515 21.8562H16.9805C16.7673 21.8562 16.4831 21.8562 16.27 21.8562C13.6412 21.7124 10.5861 21.5686 8.09947 20.7778C5.82593 20.1307 3.69449 19.0523 2.13144 17.2549C0.639432 15.5294 0 13.3725 0 11.0719C0 9.63399 0.35524 8.19608 1.06572 6.97386C1.84725 5.75163 2.91297 4.6732 4.12078 3.81046C5.54174 2.80392 7.17584 2.15686 8.80995 1.72549C9.80462 1.43791 10.8703 1.29412 11.9361 1.07843C12.7886 0.93464 13.5702 0.934641 14.4227 0.862745C16.4121 0.718954 18.3304 0.718954 20.2487 0.718954C23.9432 0.718954 27.5666 0.718954 31.2611 0.718954H31.6874V1.07843C31.6874 3.1634 31.6874 5.24837 31.6874 7.33333V7.69281H29.4849V2.44444ZM82.8419 10.7124C82.8419 15.2418 79.7158 18.9085 75.6661 20.5621C72.54 21.7843 67.1403 22 63.8011 21.9281C60.9591 21.8562 56.6252 21.7124 53.9964 20.634C52.8597 20.1307 51.794 19.5556 50.7282 18.9085C49.3783 17.9739 47.9574 16.6797 47.1758 15.2418C46.3943 13.8039 46.3233 12.2941 46.3233 10.7124C46.3233 9.63399 46.5364 8.62745 46.8917 7.62091C47.2469 6.54248 47.8863 5.60784 48.5968 4.7451C49.4494 3.73856 50.7282 2.94771 51.794 2.37255C53.286 1.5817 55.0622 0.93464 56.6963 0.647059C57.9041 0.431372 59.1829 0.287582 60.3908 0.215686C61.8828 0 63.4458 0 65.0089 0C67.6377 0 70.6927 0.143791 73.2504 0.647059C74.8845 1.00654 76.3765 1.5817 77.7975 2.44444C78.8632 3.0915 79.7158 3.88235 80.5684 4.81699C81.2789 5.67974 81.9183 6.61438 82.2735 7.69281C82.6288 8.62745 82.8419 9.63399 82.8419 10.7124ZM146.785 2.15686V19.9869C148.064 19.9869 149.343 20.0588 150.551 19.9869C151.901 19.9869 153.321 19.9869 154.671 19.7712C155.24 19.6274 155.808 19.4837 156.377 19.268C156.945 18.9804 157.442 18.6928 157.94 18.2614C158.508 17.7582 159.076 17.1111 159.503 16.3922C159.929 15.6732 160.284 14.8824 160.426 14.0915C160.639 13.085 160.782 12.0784 160.782 11.0719C160.782 10.281 160.639 9.4902 160.497 8.69935C160.284 7.9085 160 7.18954 159.574 6.47059C159.147 5.75163 158.65 5.10458 158.082 4.60131C157.442 4.02614 156.803 3.59477 156.021 3.23529C155.24 2.87582 154.458 2.44444 153.606 2.30065C151.332 1.94118 148.988 2.15686 146.785 2.15686ZM67.4956 1.86928C66.5009 1.5817 64.8668 1.5817 63.8721 1.65359C62.8064 1.72549 61.4565 1.94118 60.5329 2.37255C58.4725 3.45098 57.5488 4.31373 56.4121 6.3268C55.7016 7.54902 55.4885 9.63399 55.4885 11C55.4885 12.7255 56.0568 15.098 56.9805 16.5359C57.4067 17.2549 58.0462 17.9739 58.6856 18.4771C59.254 18.9085 59.8934 19.1961 60.6039 19.5556C61.1723 19.8431 61.7407 19.9869 62.3091 20.1307C63.73 20.4183 66.0036 20.3464 67.4245 20.0588C69.1297 19.6993 70.1954 19.0523 71.4742 17.9739C71.9716 17.5425 72.2558 16.9673 72.611 16.4641C73.2504 15.4575 73.6767 13.732 73.7478 12.5817C73.8188 11.1438 73.8188 9.63399 73.5346 8.19608C72.8242 5.10457 70.4085 2.66013 67.4956 1.86928Z" fill="black"/>
<path d="M149.485 11.2157C147.78 10.3529 146.927 9.41828 146.927 7.62089C146.927 5.60782 148.49 4.02612 150.338 4.02612C153.748 4.02612 157.158 7.62089 160.568 11.2157C157.158 14.8104 153.748 18.4052 150.338 18.4052C148.419 18.4052 146.927 16.8235 146.927 14.8104C146.927 13.0131 147.78 12.0784 149.485 11.2157Z" fill="#E31E24"/>
</g>
<defs>
<clipPath id="clip0">
<rect width="200" height="22" fill="white"/>
</clipPath>
</defs>
</svg>
